# xmcd
#
# Track frame offsets: 
#        150
#        10610
#        23555
#        36685
#        50285
#        62635
#        76735
#        90280
#        100475
#        111910
#        127060
#        137970
#        149310
#        161560
#        173710
#        180235
#
# Disc length: 2614 seconds
#
# Revision: 4
# Processed by: cddbd v1.5.2PL0 Copyright (c) Steve Scherf et al.
# Submitted via: ExactAudioCopyFreeDBPlugin 1.0
#
DISCID=cb0a3410
DTITLE=Various Artist - Country Hits
DYEAR=1995
DGENRE=Country
TTITLE0=Johnny Russell - Act Naturally
TTITLE1=Don Williams - Where Do I Go From Here
TTITLE2=Faron Young - Swinging Doors
TTITLE3=Willie Nelson - A Moment Isn't Very Long
TTITLE4=Johnny Russell - Goodhearted Woman
TTITLE5=Freddy Fender - Wasted Days Wasted Nights
TTITLE6=Jerry Lee Lewis - Another Place Another Time
TTITLE7=Carl Perkins - Daddy Sang Bass
TTITLE8=Johnny Paycheck - Heartaches By The Number
TTITLE9=Jim Reeves - Making Believe
TTITLE10=Waylon Jennings - Dream Baby
TTITLE11=Don Williams - Follow Me Back From Louisville
TTITLE12=Stonewall Jackson - Ol' Blue
TTITLE13=Johnny Paycheck - Crazy Arms
TTITLE14=Jim Reeves - I'm Beginning To Forget You
TTITLE15=Jerry Lee Lewis - You Win Again
EXTD=
EXTT0=
EXTT1=
EXTT2=
EXTT3=
EXTT4=
EXTT5=
EXTT6=
EXTT7=
EXTT8=
EXTT9=
EXTT10=
EXTT11=
EXTT12=
EXTT13=
EXTT14=
EXTT15=
PLAYORDER=
